REM MD5 bcfb31943099884a7b96b25b238c6742
FILE "Tomb Raider (USA) (Rev 2).bin" BINARY
  TRACK 01 MODE2/2352
    INDEX 01 00:00:00
  TRACK 02 AUDIO
    INDEX 00 29:22:53
    INDEX 01 29:24:53
  TRACK 03 AUDIO
    INDEX 00 32:39:21
    INDEX 01 32:41:21
  TRACK 04 AUDIO
    INDEX 00 33:43:19
    INDEX 01 33:45:19
  TRACK 05 AUDIO
    INDEX 00 35:46:58
    INDEX 01 35:48:58
  TRACK 06 AUDIO
    INDEX 00 37:46:69
    INDEX 01 37:48:69
  TRACK 07 AUDIO
    INDEX 00 39:03:68
    INDEX 01 39:05:68
  TRACK 08 AUDIO
    INDEX 00 39:59:59
    INDEX 01 40:01:59
  TRACK 09 AUDIO
    INDEX 00 41:08:03
    INDEX 01 41:10:03
  TRACK 10 AUDIO
    INDEX 00 41:48:09
    INDEX 01 41:50:09
  TRACK 11 AUDIO
    INDEX 00 43:07:30
    INDEX 01 43:09:30
  TRACK 12 AUDIO
    INDEX 00 43:15:67
    INDEX 01 43:17:67
  TRACK 13 AUDIO
    INDEX 00 43:30:66
    INDEX 01 43:32:66
  TRACK 14 AUDIO
    INDEX 00 43:37:69
    INDEX 01 43:39:69
  TRACK 15 AUDIO
    INDEX 00 43:49:74
    INDEX 01 43:51:74
  TRACK 16 AUDIO
    INDEX 00 44:01:02
    INDEX 01 44:03:02
  TRACK 17 AUDIO
    INDEX 00 44:39:65
    INDEX 01 44:41:65
  TRACK 18 AUDIO
    INDEX 00 45:22:54
    INDEX 01 45:24:54
  TRACK 19 AUDIO
    INDEX 00 45:48:03
    INDEX 01 45:50:03
  TRACK 20 AUDIO
    INDEX 00 47:16:48
    INDEX 01 47:18:48
  TRACK 21 AUDIO
    INDEX 00 48:10:65
    INDEX 01 48:12:65
  TRACK 22 AUDIO
    INDEX 00 48:52:07
    INDEX 01 48:54:07
  TRACK 23 AUDIO
    INDEX 00 49:55:45
    INDEX 01 49:57:45
  TRACK 24 AUDIO
    INDEX 00 50:53:14
    INDEX 01 50:55:14
  TRACK 25 AUDIO
    INDEX 00 51:08:42
    INDEX 01 51:10:42
  TRACK 26 AUDIO
    INDEX 00 51:45:30
    INDEX 01 51:47:30
  TRACK 27 AUDIO
    INDEX 00 51:52:31
    INDEX 01 51:54:31
  TRACK 28 AUDIO
    INDEX 00 51:59:32
    INDEX 01 52:01:32
  TRACK 29 AUDIO
    INDEX 00 52:06:32
    INDEX 01 52:08:32
  TRACK 30 AUDIO
    INDEX 00 52:13:33
    INDEX 01 52:15:33
  TRACK 31 AUDIO
    INDEX 00 52:21:31
    INDEX 01 52:23:31
  TRACK 32 AUDIO
    INDEX 00 52:28:32
    INDEX 01 52:30:32
  TRACK 33 AUDIO
    INDEX 00 52:37:70
    INDEX 01 52:39:70
  TRACK 34 AUDIO
    INDEX 00 52:47:37
    INDEX 01 52:49:37
  TRACK 35 AUDIO
    INDEX 00 52:55:09
    INDEX 01 52:57:09
  TRACK 36 AUDIO
    INDEX 00 53:02:23
    INDEX 01 53:04:23
  TRACK 37 AUDIO
    INDEX 00 53:19:19
    INDEX 01 53:21:19
  TRACK 38 AUDIO
    INDEX 00 53:26:20
    INDEX 01 53:28:20
  TRACK 39 AUDIO
    INDEX 00 53:33:21
    INDEX 01 53:35:21
  TRACK 40 AUDIO
    INDEX 00 53:49:27
    INDEX 01 53:51:27
  TRACK 41 AUDIO
    INDEX 00 53:59:67
    INDEX 01 54:01:67
  TRACK 42 AUDIO
    INDEX 00 54:06:68
    INDEX 01 54:08:68
  TRACK 43 AUDIO
    INDEX 00 54:13:68
    INDEX 01 54:15:68
  TRACK 44 AUDIO
    INDEX 00 54:23:06
    INDEX 01 54:25:06
  TRACK 45 AUDIO
    INDEX 00 54:31:30
    INDEX 01 54:33:30
  TRACK 46 AUDIO
    INDEX 00 54:41:21
    INDEX 01 54:43:21
  TRACK 47 AUDIO
    INDEX 00 54:48:22
    INDEX 01 54:50:22
  TRACK 48 AUDIO
    INDEX 00 54:55:23
    INDEX 01 54:57:23
  TRACK 49 AUDIO
    INDEX 00 55:02:24
    INDEX 01 55:04:24
  TRACK 50 AUDIO
    INDEX 00 55:18:20
    INDEX 01 55:20:20
  TRACK 51 AUDIO
    INDEX 00 55:25:20
    INDEX 01 55:27:20
  TRACK 52 AUDIO
    INDEX 00 55:32:20
    INDEX 01 55:34:20
  TRACK 53 AUDIO
    INDEX 00 55:39:21
    INDEX 01 55:41:21
  TRACK 54 AUDIO
    INDEX 00 55:48:41
    INDEX 01 55:50:41
  TRACK 55 AUDIO
    INDEX 00 55:55:42
    INDEX 01 55:57:42
  TRACK 56 AUDIO
    INDEX 00 56:05:21
    INDEX 01 56:07:21
  TRACK 57 AUDIO
    INDEX 00 56:12:22
    INDEX 01 56:14:22
REM LEADOUT 59:31:22
